<svg width="63" height="63" viewBox="0 0 63 63" fill="none" xmlns="http://www.w3.org/2000/svg">
<path d="M20.6719 31.5C20.6719 32.8054 20.1533 34.0573 19.2303 34.9803C18.3073 35.9033 17.0554 36.4219 15.75 36.4219C14.4446 36.4219 13.1927 35.9033 12.2697 34.9803C11.3467 34.0573 10.8281 32.8054 10.8281 31.5C10.8281 30.1946 11.3467 28.9427 12.2697 28.0197C13.1927 27.0967 14.4446 26.5781 15.75 26.5781C17.0554 26.5781 18.3073 27.0967 19.2303 28.0197C20.1533 28.9427 20.6719 30.1946 20.6719 31.5Z" fill="black"/>
<path d="M36.4219 31.5C36.4219 32.8054 35.9033 34.0573 34.9803 34.9803C34.0573 35.9033 32.8054 36.4219 31.5 36.4219C30.1946 36.4219 28.9427 35.9033 28.0197 34.9803C27.0967 34.0573 26.5781 32.8054 26.5781 31.5C26.5781 30.1946 27.0967 28.9427 28.0197 28.0197C28.9427 27.0967 30.1946 26.5781 31.5 26.5781C32.8054 26.5781 34.0573 27.0967 34.9803 28.0197C35.9033 28.9427 36.4219 30.1946 36.4219 31.5Z" fill="black"/>
<path d="M47.25 36.4219C48.5554 36.4219 49.8073 35.9033 50.7303 34.9803C51.6533 34.0573 52.1719 32.8054 52.1719 31.5C52.1719 30.1946 51.6533 28.9427 50.7303 28.0197C49.8073 27.0967 48.5554 26.5781 47.25 26.5781C45.9446 26.5781 44.6927 27.0967 43.7697 28.0197C42.8467 28.9427 42.3281 30.1946 42.3281 31.5C42.3281 32.8054 42.8467 34.0573 43.7697 34.9803C44.6927 35.9033 45.9446 36.4219 47.25 36.4219Z" fill="black"/>
</svg>
