<svg width="93" height="92" viewBox="0 0 93 92" fill="none" xmlns="http://www.w3.org/2000/svg">
<path d="M69.75 12.95C72.2165 12.95 74.582 13.9298 76.3261 15.6739C78.0702 17.418 79.05 19.7835 79.05 22.25V68.75C79.05 71.2165 78.0702 73.582 76.3261 75.3261C74.582 77.0702 72.2165 78.05 69.75 78.05C67.2835 78.05 64.918 77.0702 63.1739 75.3261C61.4298 73.582 60.45 71.2165 60.45 68.75V22.25C60.45 19.7835 61.4298 17.418 63.1739 15.6739C64.918 13.9298 67.2835 12.95 69.75 12.95Z" fill="#1CB2E1"/>
<path d="M46.5 26.9C48.9665 26.9 51.332 27.8798 53.0761 29.6239C54.8202 31.368 55.8 33.7335 55.8 36.2V68.75C55.8 71.2165 54.8202 73.582 53.0761 75.3261C51.332 77.0702 48.9665 78.05 46.5 78.05C44.0335 78.05 41.668 77.0702 39.9239 75.3261C38.1798 73.582 37.2 71.2165 37.2 68.75V36.2C37.2 33.7335 38.1798 31.368 39.9239 29.6239C41.668 27.8798 44.0335 26.9 46.5 26.9Z" fill="#E1CE1C"/>
<path d="M23.25 40.85C25.7165 40.85 28.082 41.8298 29.8261 43.5739C31.5702 45.318 32.55 47.6835 32.55 50.15V68.75C32.55 71.2165 31.5702 73.582 29.8261 75.3261C28.082 77.0702 25.7165 78.05 23.25 78.05C20.7835 78.05 18.418 77.0702 16.6739 75.3261C14.9298 73.582 13.95 71.2165 13.95 68.75V50.15C13.95 47.6835 14.9298 45.318 16.6739 43.5739C18.418 41.8298 20.7835 40.85 23.25 40.85Z" fill="#E11C1C"/>
</svg>
